<svg version="1.1" viewBox="0 0 2048 1248" width="240" height="146" xmlns="http://www.w3.org/2000/svg"><path transform="translate(1500,380)" d="m0 0 5 2 22 15 17 12 14 11 10 9 8 7 21 21 13 17 10 17 7 15 5 14 3 14 2 17v10l-3 24-5 19-8 20-10 18-11 15-12 14-12 12-11 9-13 9-16 9-19 9-19 7-23 6-23 4-33 3h-31l-27-2-31-4-22-4-31-7-53-14-64-18-56-15-59-14-48-10-34-6-34-5-49-5-40-2h-42l-38 2-63 6-46 6-31 6-30 8-26 9-21 9-16 8-20 11-18 12-12 9-13 11-22 22-11 14-10 15-8 15-8 21-6 21h-1v-9l3-19 6-22 8-20 8-16 8-14 11-16 11-13 9-10 18-18 11-9 19-14 15-9 12-7 16-8 32-14 29-11 31-10 35-9 36-7 33-4 12-1h74l56 3 36 3 33 4 36 6 31 7 34 9 23 7 43 14 41 14 37 12 40 12 40 10 31 6 22 3 32 2h25l32-2 35-6 27-7 21-8 19-10 16-12 8-7 1-2h2l2-4 9-12 9-16 6-16 4-15 3-18v-30l-5-29-7-21-10-19-8-12-11-14-13-15-20-20-8-7-7-7z" fill="#252124" /><path transform="translate(1043)" d="m0 0h7l1 1 2 15 5 18 7 14 8 11 10 10 14 9 13 6 14 4 6 1h23l21-5 24-10 28-12 16-5 12-2h22l13 4 6 4v2l-18-1-17 2-14 4-14 7-10 8-5 5-8 9-9 17-4 13-2 13v14l3 14 5 14 8 15 12 17 14 18 11 16 8 14 7 16 5 19 3 19v25l-3 19-5 17-7 17-8 14-9 12-8 10h-2l-2 4-10 9-10 7-1-3 12-29 8-26 4-22 1-8v-35l-4-23-6-20-6-16-1-4h-2v10l-2 14-5 16-8 16-7 10-10 11-4 3-3-1 6-11 6-15 4-20v-24l-3-15-6-18-9-16-5-7-9 1-17 3-11 1h-23l-19-2-21-5-20-7-17-8-19-12-17-14-6-7 9-7 19-10 21-7 12-3 16-2h30l20 3 19 5 1-1-13-8-15-10-16-12-12-11-13-13-9-13-8-16-5-15-2-11v-23z" fill="#252124" /><path transform="translate(1591)" d="m0 0h7l3 19v16l-3 17-5 14-9 17-11 14-13 13-11 9-16 12-19 12-8 5 10-2 17-4 15-2h30l21 3 16 5 16 6 20 11 4 3-2 4-7 7-17 13-15 9-21 10-18 6-23 5-19 2h-19l-19-2-15-3-5 1-11 18-5 12-4 13-2 11v27l4 18 5 13 7 13-1 2-6-4-7-7-9-12-7-12-6-18-2-12-1-17-7 14-6 18-5 23-1 7v40l4 23 8 27 10 25 3 9-5-1-12-11-8-7-11-13-13-21-9-21-5-19-2-13-1-17 2-18 4-20 7-19 8-16 12-18 10-13 13-18 10-16 7-16 3-12 1-17-2-16-5-15-8-15-9-11-13-10-16-8-14-4-15-2h-19l4-4 10-4 5-1h22l16 3 17 6 37 16 18 6 14 3h22l17-4 16-7 10-6 10-9 8-9 8-13 6-16z" fill="#252124" /><path transform="translate(1377,456)" d="m0 0h5v7l-6 9-8 6-19 7-12 6-3 1-2 4-3 7v11l6 12 8 6 8 3 9 1 12-2 10-5 7-6 5-8 3-9 1-12 1-3 2 6v20l-4 12-6 11-11 11-14 7-14 3-8 1h-47l-19-3-15-5-8-6-15-14-7-11-2-5-1-9 1-6h2l5 12 5 6 7 4 4 1h8l8-3 6-5 2-5 1-8-3-9-6-8-10-9-13-9-9-7v-2l12 1 24 3h46l33-4z" fill="#262225" /><path transform="translate(579,941)" d="m0 0h60l14 2 12 6 8 8 5 12 1 6v10l-2 9-4 8-5 6-8 6-11 4 4 8 12 16 13 19 5 7v3h-23l-5-5-13-18-13-19-7-9h-21l-1 50-1 1h-20zm22 12-1 5v50h18l20-1 9-4 7-8 2-5 1-11-2-11-4-7-5-4-7-3-6-1z" fill="#444143" /><path transform="translate(753,940)" d="m0 0h24l12 3 12 6 12 11 6 10 5 13 2 11v24l-3 15-5 12-7 9-10 9-12 6-13 3h-23l-13-3-12-6-10-9-7-10-6-16-2-9v-26l4-16 7-14 9-10 9-6 11-5zm3 12-9 3-8 6-6 7-5 11-2 7-1 8v23l3 16 4 10 7 9 10 6 7 2h17l11-4 6-4 6-7 5-10 3-13v-31l-4-16-6-10-4-5-10-6-6-2z" fill="#444143" /><path transform="translate(482,940)" d="m0 0h25l14 3 12 5 7 6v9l-5-1-12-6-12-3h-23l-11 3-11 6-8 8-7 14-3 14v16l4 17 6 11 5 6 11 7 12 4h24l6-2 1-6v-41l1-14h22v64l-4 4-13 5-16 3h-24l-17-3-12-5-13-10-7-10-5-11-3-11-1-21 2-15 4-12 6-10 9-10 11-7 13-5z" fill="#454244" /><path transform="translate(1472,941)" d="m0 0h89l1 1v11h-69v47h51l1 1v10l-1 1h-51v47h69v11l-1 1h-89l-1-1v-128z" fill="#454244" /><path transform="translate(1189,941)" d="m0 0h20l3 5 10 28 8 23 13 36 12 34v4h-21l-3-4-13-36-1-1h-49l-3 11-10 28-2 2h-11l1-6 9-25 9-24 7-20 16-45 4-9zm4 23-4 9-9 24-6 17v4h39l-1-6-12-34-6-14z" fill="#444143" /><path transform="translate(341,941)" d="m0 0h21l4 8 18 51 15 42 9 25v4h-21l-2-1-14-39-1-1h-48l-14 39-2 2h-10l-1-3 6-16 14-40 17-47 8-23zm5 23-4 8-11 30-5 14v2h40l-2-9-15-41z" fill="#444143" /><path transform="translate(843,941)" d="m0 0h22l3 4 16 45 21 57 2 1 2-9 9-24 15-42 8-22 3-9 5-1h7l1 3-16 44-22 62-7 19-2 2h-20l-4-8-38-106-5-13z" fill="#444143" /><path transform="translate(1334,941)" d="m0 0 22 1 5 12 19 53 14 38 3 3 3-12 11-30 10-27 10-29 3-8 9-1 4 1-3 9-13 36-9 26-15 42-6 15-1 1h-20l-5-10-9-25-8-23-15-42-9-25z" fill="#454244" /><path transform="translate(1619,941)" d="m0 0h59l1 1v10l-1 1h-36v117l-1 1h-20l-1-3v-114l-36-1-1-1v-10z" fill="#444143" /><path transform="translate(1033,941)" d="m0 0h94v12l-36 1-1 117h-20l-1-1-1-116-36-1v-11z" fill="#454244" /><path transform="translate(982,941)" d="m0 0 21 1v128l-1 1h-20l-1-1v-126z" fill="#444143" /><path transform="translate(1312,574)" d="m0 0 5 2 10 6 12 5 14 3 8 1h18l15-1-4 3-16 3h-27l-18-4-12-5-7-4-5 1-9 3-5 1h-14l-12-3-9-5-4-5 5 1 12 4 8 1h13l10-2z" fill="#4B484A" /><path transform="translate(1252,575)" d="m0 0 5 1 12 4 8 1h13l10-2 10-4h2l1 6 2 4-5-2-5 1-9 3-5 1h-14l-12-3-9-5z" fill="#4D4A4C" /><path transform="translate(1675,942)" d="m0 0h4v10h-26l-2-1-1-5-2-2 3-1z" fill="#242023" /><path transform="translate(1500 1e3)" d="m0 0h44l-1 4-4 2h-13l-10 1-13-2-3-3z" fill="#242023" /><path transform="translate(689,588)" d="m0 0 2 1-8 3-16 4-26 7-9 3-12 5h-5l-5 3-12 4-3-2 34-12 31-9z" fill="#464345" /><path transform="translate(404,799)" d="m0 0 3 2 4-2-3 9-9 30h-1v-9l3-19z" fill="#504E4F" /><path transform="translate(1360,56)" d="m0 0 2 1 1 5 10 1v1h-27l4-4z" fill="#484547" /><path transform="translate(1069,217)" d="m0 0 12 1 8 2 39 3v1h-23l-19-2-17-4z" fill="#514E50" /><path transform="translate(1312,574)" d="m0 0 5 2 6 4v5l-5 1-3-1-4-7z" fill="#2B272A" /><path transform="translate(1081,617)" d="m0 0 10 2 33 11v1l-9-1-27-9-7-3z" fill="#565455" /><path transform="translate(1459,328)" d="m0 0 3 4 7 13-1 2-6-4-6-7 3-1z" fill="#4D4B4C" /><path transform="translate(588,619)" d="m0 0 2 1-7 4-10 4-11 5-5 2-4 2-4-1 24-11z" fill="#464345" /><path transform="translate(1238,461)" d="m0 0 12 1 24 3v1h-11l-14-1-6 2-5-4z" fill="#535052" /><path transform="translate(689,588)" d="m0 0 2 1-8 3-16 4-11 3-3-1 7-3z" fill="#4B484A" /><path transform="translate(1178,334)" d="m0 0h2v2l3 1-2 4-6 5-3-1z" fill="#646263" /><path transform="translate(1398,491)" d="m0 0 2 1 1 5v20l-2 3-2-5h2l1-9h-2z" fill="#535052" /><path transform="translate(652,597)" d="m0 0 2 1-1 2-12 3-5 2-4-1 7-3z" fill="#4F4C4E" /><path transform="translate(1284,58)" d="m0 0 9 3 2 4-12-1 4-1z" fill="#4B484A" /><path transform="translate(566,628)" d="m0 0 2 1-3 3-8 3-4 2-4-1z" fill="#4C494B" /><path transform="translate(1397,506)" d="m0 0h3v7l-1 2-5 2z" fill="#363335" /><path transform="translate(611,610)" d="m0 0 2 1-3 3-12 4-3-2z" fill="#524F51" /><path transform="translate(1210,261)" d="m0 0h2l1 5h-2v10l-2-2v-12z" fill="#474446" /><path transform="translate(1231,503)" d="m0 0h2l3 10-5-2-1-2z" fill="#5A5759" /><path transform="translate(1500,380)" d="m0 0 5 2 7 5-2 1-1 2-9-9z" fill="#363335" /><path transform="translate(1134,147)" d="m0 0 5 2v4l-6-2-4-3h5z" fill="#4E4C4D" /><path transform="translate(1207,444)" d="m0 0 3 2 3 1-7 5-1-3z" fill="#565455" /><path transform="translate(664,594)" d="m0 0h3v2l-11 3-3-1 7-3z" fill="#423F41" /><path transform="translate(1396,589)" d="m0 0" fill="#FDFDFD" /><path transform="translate(1398,588)" d="m0 0" fill="#FDFDFD" /><path transform="translate(1499,379)" d="m0 0" fill="#423F41" /></svg>